<svg version="1.2" xmlns="http://www.w3.org/2000/svg" viewBox="0 0 1000 1000" width="1000" height="1000">
	<title>Apple_logo_black-svg</title>
	<style>
		.s0 { fill: #000000 } 
	</style>
	<path id="Layer" fill-rule="evenodd" class="s0" d="m881.1 340.9c-5.8 4.5-108.2 62.2-108.2 190.5 0 148.4 130.3 200.9 134.2 202.2-0.6 3.2-20.7 71.9-68.7 141.9-42.8 61.6-87.5 123.1-155.5 123.1-68 0-85.5-39.5-164-39.5-76.5 0-103.7 40.8-165.9 40.8-62.2 0-105.6-57-155.5-127-57.8-82.2-104.5-209.9-104.5-331.1 0-194.4 126.4-297.5 250.8-297.5 66.1 0 121.2 43.4 162.7 43.4 39.5 0 101.1-46 176.3-46 28.5 0 130.9 2.6 198.3 99.2zm-369.5-110.2c-5.2 0-10.4-0.7-13.6-1.3-0.6-2.5-1.9-10.3-1.9-18.1 0-51.9 26.6-103.1 55.1-135.5 36.3-42.1 96.5-73.9 147.1-75.8 1.3 5.8 1.9 13 1.9 20.1 0 51.2-22 102.4-53.1 139.3-33 40.9-90.1 71.3-135.5 71.3z"/>
</svg>